<svg xmlns="http://www.w3.org/2000/svg" viewBox="0 0 1440 3500" height="3500" width="1440"><g xmlns="http://www.w3.org/2000/svg" transform="matrix(-1 0 0 -1 1440 3500)"><g mask="url(&quot;#SvgjsMask1570&quot;)" fill="none"><rect width="1440" height="3500" x="0" y="0" fill="url(&quot;#SvgjsRadialGradient1571&quot;)"></rect><path d="M1440 0L965.99 0L1440 38.45z" fill="rgba(255, 255, 255, .1)"></path><path d="M965.99 0L1440 38.45L1440 1758.24L610.1 0z" fill="rgba(255, 255, 255, .075)"></path><path d="M610.1 0L1440 1758.24L1440 2309.9300000000003L294.58000000000004 0z" fill="rgba(255, 255, 255, .05)"></path><path d="M294.5799999999999 0L1440 2309.9300000000003L1440 2474.9L114.76999999999992 0z" fill="rgba(255, 255, 255, .025)"></path><path d="M0 3500L228.62 3500L0 3443.02z" fill="rgba(0, 0, 0, .1)"></path><path d="M0 3443.02L228.62 3500L734.74 3500L0 2160.69z" fill="rgba(0, 0, 0, .075)"></path><path d="M0 2160.69L734.74 3500L1115.4 3500L0 2085.77z" fill="rgba(0, 0, 0, .05)"></path><path d="M0 2085.77L1115.4 3500L1342.3500000000001 3500L0 742.1299999999999z" fill="rgba(0, 0, 0, .025)"></path></g><defs><mask id="SvgjsMask1570"><rect width="1440" height="3500" fill="#ffffff"></rect></mask><radialGradient cx="100%" cy="0%" r="3784.65" gradientUnits="userSpaceOnUse" id="SvgjsRadialGradient1571"><stop stop-color="rgba(246, 244, 255, 1)" offset="0.14"></stop><stop stop-color="rgba(225, 227, 230, 1)" offset="1"></stop></radialGradient></defs></g></svg>